<?xml version="1.0" encoding="iso-8859-1"?>
<!-- Uploaded to: SVG Repo, www.svgrepo.com, Generator: SVG Repo Mixer Tools -->
<svg height="800px" width="800px" version="1.1" id="Capa_1" xmlns="http://www.w3.org/2000/svg" xmlns:xlink="http://www.w3.org/1999/xlink" 
	 viewBox="0 0 25.637 25.637" xml:space="preserve">
<g>
	<path style="fill:#030104;" d="M22.372,10.739c-3.339,3.34-5.833,4.297-8.329,6.791c-1.77,1.771-1.066,2.605-3.566,5.105
		c-2.464,2.464-3.674,2.068-3.674,2.068s-1.97-0.963-2.353-2.807c0,0,1.105,0.322,3.358-1.932c0.831-0.828,2.368-1.039,3.189-1.712
		c1.033-0.846,1.879-1.706,2.083-1.91c0.397-0.396,2.86-1.765,5.205-3.494c0.645-0.475,0.247-1.629,1.005-2.388
		s2.426-0.438,2.972-0.984c4.841-4.841,2.11-7.998,2.11-7.998S28.274,4.839,22.372,10.739z M7.03,19.189
		c0.694-0.693,2.178-0.997,2.964-1.628c0.741-0.591,1.284-0.99,2.188-1.894c1.182-1.182,3.059-2.191,5.086-3.582
		c0.571-0.393,0.556-2.092,1.141-2.558c0.609-0.487,2.729-0.659,3.325-1.255c3.903-3.903,1.81-7.147,1.81-7.147
		S21.634,0.017,18.8,2.85c-0.203,0.203-0.44,0.394-0.705,0.574l0.297,1.172c0.066,0.261-0.083,0.529-0.334,0.599
		c-0.25,0.067-0.508-0.087-0.572-0.349L17.25,3.917c-0.242,0.123-0.5,0.239-0.766,0.349l0.281,1.109
		c0.066,0.261-0.084,0.527-0.334,0.596c-0.25,0.07-0.508-0.085-0.574-0.347L15.596,4.6c-0.258,0.088-0.521,0.172-0.792,0.251
		l0.278,1.094c0.068,0.261-0.083,0.528-0.334,0.598c-0.25,0.069-0.507-0.086-0.572-0.348l-0.278-1.097
		c-0.274,0.07-0.552,0.135-0.832,0.196l0.272,1.069c0.065,0.261-0.082,0.529-0.333,0.598s-0.508-0.087-0.575-0.349l-0.287-1.127
		C11.87,5.537,11.6,5.587,11.33,5.631l0.26,1.023c0.066,0.262-0.083,0.529-0.334,0.598c-0.25,0.067-0.507-0.088-0.573-0.348
		l-0.286-1.125c-0.289,0.043-0.57,0.082-0.841,0.118l0.266,1.05c0.065,0.261-0.083,0.529-0.333,0.597
		C9.238,7.615,8.983,7.458,8.916,7.197l-0.3-1.185C7.228,6.165,6.22,6.22,6.026,6.221C3.855,6.261,4.311,9.004,6.363,9
		c0,1.067-0.089,2.421-0.941,3.273c-3.133,3.133-4.812,0.569-5.227,1.915c-0.478,1.545-0.076,2.059,1.182,3.469
		C2.132,18.503,3.6,20.838,3.6,20.838S4.538,21.681,7.03,19.189z"/>
</g>
</svg>